{"title":"Body Heat XXX 2010 1080p Bluray x264-MGA","uid":6945999,"size":9473467646,"categoryP":"porn","categoryS":"hd___movies","magnet":"?xt=urn:btih:40195e433c0f2714290cc1b2e079ff81d5facf1b&amp;dn=Body+Heat+XXX+2010+1080p+Bluray+x264-MGA&amp;tr=udp%3A%2F%2Ftracker.openbittorrent.com%3A80&amp;tr=udp%3A%2F%2Fopen.demonii.com%3A1337&amp;tr=udp%3A%2F%2Ftracker.coppersurfer.tk%3A6969&amp;tr=udp%3A%2F%2Fexodus.desync.com%3A6969","seeders":1,"leechers":2,"uploader":"PoOoP12","files":2,"time":1326230219,"description":"Feature, Threesome\n------------------\n\nStudio: Digital Playground\n\nCast: Bridgette B., Jesse Jane , Katsumi, Kayden Kross, Mick Blue, Raven Alexis, Riley Steele, Scott Nails, Tommy Gunn\n\nPlot: Feature porn! Fire has never been so hot since these sexy firefighters took over the station in the adult DVD Body Heat. Dangerous explosions, life or death situations, and powerful desire makes everyone live for the moment. For the first time ever, Digital Playground contract stars Jesse Jane and Kayden Kross sizzle together as a dynamic duo burning up the screen with scorching passion. Riley Steele, Raven Alexis and Katsumi help fuel the flames in an epic orgy atop a fire engine that will make your temperature soar. Male studs Scott Nails, Manuel Ferrara, Evan Stone, and Tommy Gunn ignite the action in this die for movie. Play with fire never hurt so good!\n\nBody.Heat.XXX.AC3.BD.x264.1080p-MGA\nFormat : Matroska\nFile size : 8.82 GiB\nDuration : 2h 19mn\nOverall bit rate : 9 069 Kbps\n  \nVideo\nFormat : AVC\nFormat/Info : Advanced Video Codec\nFormat profile : &lt;a class=&quot;__cf_email__&quot; href=&quot;/cdn-cgi/l/email-protection&quot; data-cfemail=&quot;fbb3929c93bbb7cfd5ca&quot;&gt;[email&amp;#160;protected]&lt;/a&gt;&lt;script cf-hash='f9e31' type=&quot;text/javascript&quot;&gt;\n/* &lt;![CDATA[ */!function(){try{var t=&quot;currentScript&quot;in document?document.currentScript:function(){for(var t=document.getElementsByTagName(&quot;script&quot;),e=t.length;e--;)if(t[e].getAttribute(&quot;cf-hash&quot;))return t[e]}();if(t&amp;&amp;t.previousSibling){var e,r,n,i,c=t.previousSibling,a=c.getAttribute(&quot;data-cfemail&quot;);if(a){for(e=&quot;&quot;,r=parseInt(a.substr(0,2),16),n=2;a.length-n;n+=2)i=parseInt(a.substr(n,2),16)^r,e+=String.fromCharCode(i);e=document.createTextNode(e),c.parentNode.replaceChild(e,c)}}}catch(u){}}();/* ]]&gt; */&lt;/script&gt;\nFormat settings, CABAC : Yes\nFormat settings, ReFrames : 5 frames\nMuxing mode : Header stripping\nCodec ID : V_MPEG4/ISO/AVC\nDuration : 2h 19mn\nBit rate : 8 248 Kbps\nWidth : 1 920 pixels\nHeight : 1 080 pixels\nDisplay aspect ratio : 16:9\nFrame rate : 23.976 fps\nColor space : YUV\nChroma subsampling : 4:2:0\nBit depth : 8 bits\nScan type : Progressive\nBits/(Pixel*Frame) : 0.166\nStream size : 8.02 GiB (91%)\nWriting library : x264 core 98 r1649 c54c47d\nLanguage : English\n\nAudio\nFormat : AC-3\nFormat/Info : Audio Coding 3\nMode extension : CM (complete main)\nMuxing mode : Header stripping\nCodec ID : A_AC3\nDuration : 2h 19mn\nBit rate mode : Constant\nBit rate : 640 Kbps\nChannel(s) : 6 channels\nChannel positions : Front: L C R, Side: L R, LFE\nSampling rate : 48.0 KHz\nBit depth : 16 bits\nCompression mode : Lossy\nStream size : 638 MiB (7%)\nLanguage : English\n\nCover\n-----\n &lt;a href=&quot;\nhttp://unhidefreepic.com/?v=1ooo.jpg&quot; rel=&quot;nofollow&quot; target=&quot;_NEW&quot;&gt;\nhttp://unhidefreepic.com/?v=1ooo.jpg&lt;/a&gt;\n &lt;a href=&quot;\nhttp://unhidefreepic.com/?v=2rxr.jpg&quot; rel=&quot;nofollow&quot; target=&quot;_NEW&quot;&gt;\nhttp://unhidefreepic.com/?v=2rxr.jpg&lt;/a&gt;\n\nscreens\n-------\n &lt;a href=&quot;\nhttp://unhidefreepic.com/?v=bodyheatxx.png&quot; rel=&quot;nofollow&quot; target=&quot;_NEW&quot;&gt;\nhttp://unhidefreepic.com/?v=bodyheatxx.png&lt;/a&gt;\n &lt;a href=&quot;\nhttp://unhidefreepic.com/?v=bodyheiqi.png&quot; rel=&quot;nofollow&quot; target=&quot;_NEW&quot;&gt;\nhttp://unhidefreepic.com/?v=bodyheiqi.png&lt;/a&gt;\n &lt;a href=&quot;\nhttp://unhidefreepic.com/?v=bodyhevnv.png&quot; rel=&quot;nofollow&quot; target=&quot;_NEW&quot;&gt;\nhttp://unhidefreepic.com/?v=bodyhevnv.png&lt;/a&gt;\n &lt;a href=&quot;\nhttp://unhidefreepic.com/?v=1110370430.jpg&quot; rel=&quot;nofollow&quot; target=&quot;_NEW&quot;&gt;\nhttp://unhidefreepic.com/?v=1110370430.jpg&lt;/a&gt;","torrent":{"xt":"urn:btih:40195e433c0f2714290cc1b2e079ff81d5facf1b","amp;dn":"Body+Heat+XXX+2010+1080p+Bluray+x264-MGA","amp;tr":["udp%3A%2F%2Ftracker.openbittorrent.com%3A80","udp%3A%2F%2Fopen.demonii.com%3A1337","udp%3A%2F%2Ftracker.coppersurfer.tk%3A6969","udp%3A%2F%2Fexodus.desync.com%3A6969"],"infoHash":"40195e433c0f2714290cc1b2e079ff81d5facf1b","infoHashBuffer":{"type":"Buffer","data":[64,25,94,67,60,15,39,20,41,12,193,178,224,121,255,129,213,250,207,27]},"announce":[],"urlList":[]}}